# xmcd
#
# Track frame offsets:
#	150
#	1225
#	36611
#	63285
#	88795
#	106427
#	136875
#	170156
#	196610
#	227141
#
# Disc length: 4077
#
# Revision: 2
# Processed by: cddbd v1.5.1PL0 Copyright (c) Steve Scherf et al.
# Submitted via: Grip 3.2.0
# Normalized: r1:TRMNUM
#
DISCID=820feb0a
DTITLE=Brian Kellock Trio - 'Live  at Henry's'
DYEAR=2001
DGENRE=Jazz
TTITLE0=Introduction
TTITLE1=TP in NYC
TTITLE2=Chant
TTITLE3=Conception
TTITLE4=Lennies Pennies
TTITLE5=Three for Doreen
TTITLE6=317 East 32nd Street
TTITLE7=Sho'Nuff
TTITLE8=Horace-Scope
TTITLE9=The Peacocks - Ezzthetic
EXTD=YEAR: 2001
EXTT0=
EXTT1=
EXTT2=
EXTT3=
EXTT4=
EXTT5=
EXTT6=
EXTT7=
EXTT8=
EXTT9=
PLAYORDER=
